<svg width="99" height="80" viewBox="0 0 99 80" fill="none" xmlns="http://www.w3.org/2000/svg">
<g clip-path="url(#clip0_457_16)">
<path d="M96.525 54.45H94.05V37.7283C94.05 35.7637 93.2611 33.8766 91.8689 32.4844L76.4156 17.0311C75.0234 15.6389 73.1362 14.85 71.1717 14.85H64.35V7.425C64.35 3.32578 61.0242 0 56.925 0H17.325C13.2258 0 9.9 3.32578 9.9 7.425V14.85H1.2375C0.556875 14.85 0 15.4069 0 16.0875V18.5625C0 19.2431 0.556875 19.8 1.2375 19.8H43.3125C43.9931 19.8 44.55 20.3569 44.55 21.0375V23.5125C44.55 24.1931 43.9931 24.75 43.3125 24.75H6.1875C5.50687 24.75 4.95 25.3069 4.95 25.9875V28.4625C4.95 29.1431 5.50687 29.7 6.1875 29.7H38.3625C39.0431 29.7 39.6 30.2569 39.6 30.9375V33.4125C39.6 34.0931 39.0431 34.65 38.3625 34.65H1.2375C0.556875 34.65 0 35.2069 0 35.8875V38.3625C0 39.0431 0.556875 39.6 1.2375 39.6H33.4125C34.0931 39.6 34.65 40.1569 34.65 40.8375V43.3125C34.65 43.9931 34.0931 44.55 33.4125 44.55H9.9V64.35C9.9 72.5484 16.5516 79.2 24.75 79.2C32.9484 79.2 39.6 72.5484 39.6 64.35H59.4C59.4 72.5484 66.0516 79.2 74.25 79.2C82.4484 79.2 89.1 72.5484 89.1 64.35H96.525C97.8862 64.35 99 63.2362 99 61.875V56.925C99 55.5637 97.8862 54.45 96.525 54.45ZM24.75 71.775C20.6508 71.775 17.325 68.4492 17.325 64.35C17.325 60.2508 20.6508 56.925 24.75 56.925C28.8492 56.925 32.175 60.2508 32.175 64.35C32.175 68.4492 28.8492 71.775 24.75 71.775ZM74.25 71.775C70.1508 71.775 66.825 68.4492 66.825 64.35C66.825 60.2508 70.1508 56.925 74.25 56.925C78.3492 56.925 81.675 60.2508 81.675 64.35C81.675 68.4492 78.3492 71.775 74.25 71.775ZM86.625 39.6H64.35V22.275H71.1717L86.625 37.7283V39.6Z" fill="#1A6EFF"/>
</g>
<defs>
<clipPath id="clip0_457_16">
<rect width="99" height="79.2" fill="white"/>
</clipPath>
</defs>
</svg>
